<svg xmlns="http://www.w3.org/2000/svg" xmlns:xlink="http://www.w3.org/1999/xlink" width="500" zoomAndPan="magnify" viewBox="0 0 375 374.999991" height="500" preserveAspectRatio="xMidYMid meet" version="1.0"><defs><g/><clipPath id="646c8150d6"><path d="M 124.90625 102.328125 L 250.15625 102.328125 L 250.15625 227.578125 L 124.90625 227.578125 Z M 124.90625 102.328125 " clip-rule="nonzero"/></clipPath><clipPath id="0e76e35f6e"><path d="M 149 125 L 226.707031 125 L 226.707031 213.789062 L 149 213.789062 Z M 149 125 " clip-rule="nonzero"/></clipPath></defs><rect x="-37.5" width="450" fill="#ffffff" y="-37.499999" height="449.999989" fill-opacity="1"/><rect x="-37.5" width="450" fill="#ffffff" y="-37.499999" height="449.999989" fill-opacity="1"/><g clip-path="url(#646c8150d6)"><path fill="#ff5757" d="M 250.085938 164.921875 C 250.085938 199.484375 222.066406 227.507812 187.496094 227.507812 C 152.929688 227.507812 124.90625 199.484375 124.90625 164.921875 C 124.90625 130.351562 152.929688 102.328125 187.496094 102.328125 C 222.066406 102.328125 250.085938 130.351562 250.085938 164.921875 Z M 250.085938 164.921875 " fill-opacity="1" fill-rule="nonzero"/></g><g clip-path="url(#0e76e35f6e)"><path fill="#ffffff" d="M 221.183594 130.808594 C 217.703125 127.492188 213.039062 125.644531 208.234375 125.660156 C 203.269531 125.679688 198.605469 127.621094 195.09375 131.132812 L 188.398438 137.828125 L 181.871094 131.300781 C 174.597656 124.027344 162.757812 123.800781 155.414062 131.003906 C 147.996094 138.273438 147.953125 150.222656 155.28125 157.550781 L 190.738281 193.007812 C 194.785156 197.054688 194.972656 203.644531 191.003906 207.765625 C 186.945312 211.984375 180.207031 212.035156 176.082031 207.914062 L 167.300781 199.128906 C 166.929688 198.757812 166.894531 198.171875 167.210938 197.753906 C 168.507812 196.050781 169.226562 193.882812 169.066406 191.546875 C 168.75 186.933594 164.976562 183.226562 160.363281 182.984375 C 155.015625 182.707031 150.582031 187.011719 150.65625 192.316406 C 150.71875 197.226562 154.722656 201.277344 159.632812 201.402344 C 161.214844 201.441406 162.710938 201.082031 164.027344 200.414062 C 164.429688 200.210938 164.914062 200.296875 165.230469 200.613281 L 174.304688 209.6875 C 176.832031 212.214844 180.148438 213.476562 183.46875 213.476562 C 186.789062 213.476562 190.109375 212.210938 192.632812 209.6875 C 197.6875 204.632812 197.6875 196.410156 192.632812 191.355469 L 157.058594 155.777344 C 150.753906 149.472656 150.753906 139.214844 157.058594 132.910156 C 163.363281 126.605469 173.621094 126.605469 179.925781 132.910156 L 187.476562 140.460938 C 187.730469 140.714844 188.066406 140.832031 188.398438 140.824219 C 188.730469 140.832031 189.066406 140.714844 189.320312 140.460938 L 196.71875 133.058594 C 199.789062 129.988281 203.933594 128.179688 208.273438 128.171875 C 212.605469 128.164062 216.679688 129.847656 219.742188 132.910156 C 222.800781 135.96875 224.484375 140.039062 224.476562 144.367188 C 224.46875 148.710938 222.660156 152.855469 219.589844 155.929688 L 217.199219 158.320312 C 217 158.515625 216.734375 158.628906 216.457031 158.628906 L 209.324219 158.628906 C 208.929688 158.628906 208.566406 158.40625 208.390625 158.050781 L 204.945312 151.160156 C 204.558594 150.390625 203.457031 150.390625 203.074219 151.160156 L 197.152344 162.992188 C 196.769531 163.761719 195.667969 163.761719 195.28125 162.992188 L 193.261719 158.945312 C 192.875 158.175781 191.777344 158.175781 191.390625 158.945312 L 189.371094 162.988281 C 188.984375 163.761719 187.882812 163.761719 187.5 162.988281 L 181.582031 151.15625 C 181.199219 150.386719 180.097656 150.386719 179.710938 151.15625 L 176.269531 158.046875 C 176.089844 158.398438 175.726562 158.625 175.332031 158.625 L 169.019531 158.625 C 168.332031 158.625 167.734375 159.152344 167.714844 159.84375 C 167.691406 160.554688 168.261719 161.136719 168.96875 161.136719 L 176.886719 161.136719 C 177.28125 161.136719 177.644531 160.910156 177.820312 160.558594 L 179.710938 156.773438 C 180.097656 156 181.199219 156 181.582031 156.773438 L 187.5 168.605469 C 187.882812 169.375 188.984375 169.375 189.371094 168.605469 L 191.390625 164.5625 C 191.777344 163.789062 192.875 163.789062 193.261719 164.5625 L 195.28125 168.605469 C 195.667969 169.378906 196.769531 169.378906 197.152344 168.605469 L 203.070312 156.773438 C 203.453125 156.003906 204.554688 156.003906 204.941406 156.773438 L 206.832031 160.558594 C 207.011719 160.914062 207.375 161.136719 207.769531 161.136719 L 217.410156 161.136719 C 217.488281 161.136719 217.5625 161.128906 217.636719 161.117188 C 217.640625 161.117188 217.644531 161.113281 217.652344 161.113281 C 217.722656 161.101562 217.796875 161.078125 217.867188 161.050781 C 217.871094 161.050781 217.878906 161.046875 217.886719 161.046875 C 217.953125 161.015625 218.019531 160.980469 218.082031 160.941406 C 218.089844 160.9375 218.097656 160.933594 218.101562 160.929688 C 218.167969 160.882812 218.230469 160.832031 218.289062 160.777344 C 218.292969 160.773438 218.292969 160.773438 218.296875 160.773438 L 221.332031 157.734375 C 224.929688 154.140625 227.027344 149.269531 226.988281 144.183594 C 226.945312 139.101562 224.882812 134.335938 221.183594 130.808594 Z M 153.164062 192.1875 C 153.164062 188.492188 156.175781 185.484375 159.871094 185.484375 C 163.566406 185.484375 166.574219 188.492188 166.574219 192.1875 C 166.574219 195.886719 163.566406 198.894531 159.871094 198.894531 C 156.175781 198.894531 153.164062 195.886719 153.164062 192.1875 Z M 153.164062 192.1875 " fill-opacity="1" fill-rule="nonzero"/></g><g fill="#ffffff" fill-opacity="1"><g transform="translate(149.538532, 256.070988)"><g><path d="M 5.671875 -10.78125 L 9.921875 -10.78125 L 9.921875 -4.640625 C 9.921875 -3.078125 9.535156 -1.875 8.765625 -1.03125 C 8.003906 -0.195312 6.878906 0.21875 5.390625 0.21875 C 3.898438 0.21875 2.769531 -0.195312 2 -1.03125 C 1.238281 -1.875 0.859375 -3.078125 0.859375 -4.640625 L 0.859375 -14.703125 C 0.859375 -16.265625 1.238281 -17.460938 2 -18.296875 C 2.769531 -19.140625 3.898438 -19.5625 5.390625 -19.5625 C 6.878906 -19.5625 8.003906 -19.140625 8.765625 -18.296875 C 9.535156 -17.460938 9.921875 -16.265625 9.921875 -14.703125 L 9.921875 -12.828125 L 7.046875 -12.828125 L 7.046875 -14.890625 C 7.046875 -15.597656 6.898438 -16.09375 6.609375 -16.375 C 6.328125 -16.664062 5.945312 -16.8125 5.46875 -16.8125 C 4.988281 -16.8125 4.601562 -16.664062 4.3125 -16.375 C 4.03125 -16.09375 3.890625 -15.597656 3.890625 -14.890625 L 3.890625 -4.453125 C 3.890625 -3.753906 4.03125 -3.265625 4.3125 -2.984375 C 4.601562 -2.710938 4.988281 -2.578125 5.46875 -2.578125 C 5.945312 -2.578125 6.328125 -2.710938 6.609375 -2.984375 C 6.898438 -3.265625 7.046875 -3.753906 7.046875 -4.453125 L 7.046875 -8.015625 L 5.671875 -8.015625 Z M 5.671875 -10.78125 "/></g></g></g><g fill="#ffffff" fill-opacity="1"><g transform="translate(162.167063, 256.070988)"><g><path d="M 10.953125 0 L 7.875 0 L 7.359375 -3.515625 L 3.625 -3.515625 L 3.09375 0 L 0.296875 0 L 3.40625 -19.34375 L 7.84375 -19.34375 Z M 4.015625 -6.140625 L 6.9375 -6.140625 L 5.46875 -15.921875 Z M 4.015625 -6.140625 "/></g></g></g><g fill="#ffffff" fill-opacity="1"><g transform="translate(175.265352, 256.070988)"><g><path d="M 7.46875 0 C 7.425781 -0.125 7.382812 -0.242188 7.34375 -0.359375 C 7.3125 -0.472656 7.28125 -0.609375 7.25 -0.765625 C 7.226562 -0.929688 7.210938 -1.144531 7.203125 -1.40625 C 7.191406 -1.664062 7.1875 -1.988281 7.1875 -2.375 L 7.1875 -5.421875 C 7.1875 -6.316406 7.03125 -6.945312 6.71875 -7.3125 C 6.40625 -7.6875 5.898438 -7.875 5.203125 -7.875 L 4.140625 -7.875 L 4.140625 0 L 1.109375 0 L 1.109375 -19.34375 L 5.6875 -19.34375 C 7.28125 -19.34375 8.429688 -18.972656 9.140625 -18.234375 C 9.847656 -17.503906 10.203125 -16.390625 10.203125 -14.890625 L 10.203125 -13.375 C 10.203125 -11.382812 9.535156 -10.078125 8.203125 -9.453125 C 8.984375 -9.140625 9.515625 -8.628906 9.796875 -7.921875 C 10.085938 -7.210938 10.234375 -6.347656 10.234375 -5.328125 L 10.234375 -2.34375 C 10.234375 -1.863281 10.25 -1.441406 10.28125 -1.078125 C 10.320312 -0.722656 10.414062 -0.363281 10.5625 0 Z M 4.140625 -16.578125 L 4.140625 -10.640625 L 5.328125 -10.640625 C 5.898438 -10.640625 6.347656 -10.785156 6.671875 -11.078125 C 6.992188 -11.378906 7.15625 -11.914062 7.15625 -12.6875 L 7.15625 -14.59375 C 7.15625 -15.289062 7.03125 -15.796875 6.78125 -16.109375 C 6.53125 -16.421875 6.140625 -16.578125 5.609375 -16.578125 Z M 4.140625 -16.578125 "/></g></g></g><g fill="#ffffff" fill-opacity="1"><g transform="translate(188.225476, 256.070988)"><g><path d="M 4.015625 -19.34375 L 4.015625 -4.421875 C 4.015625 -3.722656 4.15625 -3.234375 4.4375 -2.953125 C 4.71875 -2.679688 5.097656 -2.546875 5.578125 -2.546875 C 6.054688 -2.546875 6.4375 -2.679688 6.71875 -2.953125 C 7.007812 -3.234375 7.15625 -3.722656 7.15625 -4.421875 L 7.15625 -19.34375 L 10.03125 -19.34375 L 10.03125 -4.609375 C 10.03125 -3.046875 9.644531 -1.84375 8.875 -1 C 8.113281 -0.164062 6.988281 0.25 5.5 0.25 C 4.007812 0.25 2.878906 -0.164062 2.109375 -1 C 1.347656 -1.84375 0.96875 -3.046875 0.96875 -4.609375 L 0.96875 -19.34375 Z M 4.015625 -19.34375 "/></g></g></g><g fill="#ffffff" fill-opacity="1"><g transform="translate(201.075062, 256.070988)"><g><path d="M 1.109375 -19.34375 L 5.921875 -19.34375 C 7.441406 -19.34375 8.578125 -18.9375 9.328125 -18.125 C 10.078125 -17.320312 10.453125 -16.132812 10.453125 -14.5625 L 10.453125 -4.78125 C 10.453125 -3.21875 10.078125 -2.03125 9.328125 -1.21875 C 8.578125 -0.40625 7.441406 0 5.921875 0 L 1.109375 0 Z M 4.140625 -16.578125 L 4.140625 -2.765625 L 5.859375 -2.765625 C 6.335938 -2.765625 6.710938 -2.898438 6.984375 -3.171875 C 7.265625 -3.453125 7.40625 -3.941406 7.40625 -4.640625 L 7.40625 -14.703125 C 7.40625 -15.398438 7.265625 -15.882812 6.984375 -16.15625 C 6.710938 -16.4375 6.335938 -16.578125 5.859375 -16.578125 Z M 4.140625 -16.578125 "/></g></g></g><g fill="#ffffff" fill-opacity="1"><g transform="translate(214.200977, 256.070988)"><g><path d="M 10.953125 0 L 7.875 0 L 7.359375 -3.515625 L 3.625 -3.515625 L 3.09375 0 L 0.296875 0 L 3.40625 -19.34375 L 7.84375 -19.34375 Z M 4.015625 -6.140625 L 6.9375 -6.140625 L 5.46875 -15.921875 Z M 4.015625 -6.140625 "/></g></g></g></svg>